<?xml version="1.0" standalone="no"?>
<!DOCTYPE svg PUBLIC "-//W3C//DTD SVG 20010904//EN"
 "http://www.w3.org/TR/2001/REC-SVG-20010904/DTD/svg10.dtd">
<svg version="1.0" xmlns="http://www.w3.org/2000/svg"
 width="351.000000pt" height="146.000000pt" viewBox="0 0 351.000000 146.000000"
 preserveAspectRatio="xMidYMid meet">

<g transform="translate(0.000000,146.000000) scale(0.100000,-0.100000)"
fill="#000000" stroke="none">
<path d="M388 1170 c-150 -150 -201 -208 -222 -251 -70 -145 -47 -314 58 -427
46 -49 81 -44 150 19 l56 51 -26 32 c-38 44 -54 88 -54 146 0 73 24 110 144
230 l106 105 -1 125 c0 69 -4 134 -8 145 -7 17 -33 -5 -203 -175z"/>
<path d="M895 1010 c-11 -5 -42 -31 -69 -58 l-49 -51 31 -35 c32 -37 52 -90
52 -141 -1 -55 -36 -109 -143 -222 l-107 -111 0 -141 c0 -77 4 -141 8 -141 14
0 388 384 411 421 50 84 65 208 37 301 -37 120 -114 200 -171 178z"/>
<path d="M1570 795 c0 -122 2 -145 15 -145 12 0 15 14 15 63 0 74 18 107 59
107 42 0 51 -17 51 -97 0 -66 2 -73 20 -73 18 0 20 7 20 64 0 84 -14 122 -50
134 -22 8 -36 6 -64 -9 l-36 -19 0 60 c0 47 -3 60 -15 60 -13 0 -15 -23 -15
-145z"/>
<path d="M1355 908 c-28 -16 -35 -28 -35 -64 0 -38 15 -52 83 -74 40 -13 53
-22 55 -40 6 -40 -47 -53 -100 -26 -23 12 -29 12 -38 1 -18 -22 33 -49 91 -49
60 0 89 23 89 70 0 38 -32 69 -83 79 -41 9 -57 22 -57 47 0 25 37 37 77 26 56
-15 75 12 22 31 -40 14 -78 14 -104 -1z"/>
<path d="M2368 905 c-64 -36 -39 -107 47 -134 26 -9 53 -23 58 -33 26 -40 -53
-66 -101 -32 -12 8 -27 12 -32 9 -21 -13 -8 -34 32 -50 74 -29 148 2 148 63 0
37 -24 58 -87 77 -51 15 -67 32 -57 59 7 19 40 24 83 13 39 -10 60 3 36 23
-24 20 -96 23 -127 5z"/>
<path d="M1883 853 c-12 -2 -34 -18 -48 -34 -70 -85 19 -201 118 -154 108 51
48 209 -70 188z m72 -47 c24 -17 26 -80 4 -102 -25 -25 -79 -21 -101 7 -23 27
-18 76 9 97 22 16 65 15 88 -2z"/>
<path d="M2080 715 c0 -122 2 -145 15 -145 12 0 15 13 15 55 0 30 2 55 3 55 2
0 18 -7 35 -15 62 -31 122 13 122 89 0 79 -59 120 -124 86 -35 -17 -36 -17
-36 1 0 10 -7 19 -15 19 -13 0 -15 -23 -15 -145z m144 83 c49 -70 -43 -154
-96 -88 -38 47 -11 110 47 110 24 0 39 -7 49 -22z"/>
<path d="M2629 846 c-19 -6 -32 -15 -29 -21 3 -5 9 -9 14 -7 39 13 64 12 79
-3 26 -26 21 -32 -34 -38 -86 -10 -117 -63 -63 -106 32 -25 46 -26 84 -6 27
14 30 14 30 0 0 -8 7 -15 15 -15 24 0 22 161 -2 182 -26 22 -55 27 -94 14z
m81 -111 c0 -19 -35 -55 -54 -55 -29 0 -46 13 -46 34 0 31 7 36 57 36 32 0 43
-4 43 -15z"/>
<path d="M2797 853 c-3 -4 12 -51 33 -103 32 -80 41 -95 60 -95 19 0 28 15 61
100 21 55 39 101 39 103 0 1 -7 2 -16 2 -14 0 -25 -19 -69 -125 l-17 -40 -31
79 c-30 74 -48 98 -60 79z"/>
<path d="M3020 851 c0 -5 16 -52 36 -105 31 -80 40 -96 58 -96 17 0 28 17 59
98 42 109 43 115 21 110 -9 -2 -28 -35 -46 -81 -17 -44 -33 -75 -37 -70 -4 4
-20 41 -35 81 -16 42 -34 72 -42 72 -8 0 -14 -4 -14 -9z"/>
<path d="M3248 854 c-3 -3 12 -51 33 -107 22 -56 39 -107 39 -114 0 -16 -29
-31 -50 -26 -10 3 -20 -2 -23 -11 -4 -11 1 -18 19 -22 51 -13 67 6 122 146 29
73 50 135 48 138 -14 14 -37 -14 -61 -77 -16 -39 -31 -71 -36 -71 -4 0 -19 34
-34 75 -25 67 -40 86 -57 69z"/>
</g>
</svg>
